HIERARCHY
ROOT Hips
{
	OFFSET	0.00	0.00	0.00
	CHANNELS 6 Xposition Yposition Zposition Zrotation Xrotation Yrotation
	JOINT LeftUpLeg
	{
		OFFSET	 0.126116	-0.014019	-0.065224
		CHANNELS 3 Zrotation Xrotation Yrotation
		JOINT LeftLeg
		{
			OFFSET	 0.000000	 0.000000	 0.569914
			CHANNELS 3 Zrotation Xrotation Yrotation
			JOINT LeftFoot
			{
				OFFSET	 0.000000	 0.000000	 0.544423
				CHANNELS 3 Zrotation Xrotation Yrotation
				JOINT LeftToeBase
				{
					OFFSET	 0.000000	 0.000000	 0.207117
					CHANNELS 3 Zrotation Xrotation Yrotation
					End Site
					{
						OFFSET	 0.000000	 0.000000	 0.207117
					}
				}
			}
		}
	}
	JOINT RightUpLeg
	{
		OFFSET	-0.124023	-0.008373	-0.065224
		CHANNELS 3 Zrotation Xrotation Yrotation
		JOINT RightLeg
		{
			OFFSET	 0.000000	 0.000000	 0.570047
			CHANNELS 3 Zrotation Xrotation Yrotation
			JOINT RightFoot
			{
				OFFSET	 0.000000	 0.000000	 0.544354
				CHANNELS 3 Zrotation Xrotation Yrotation
				JOINT RightToeBase
				{
					OFFSET	 0.000000	 0.000000	 0.207540
					CHANNELS 3 Zrotation Xrotation Yrotation
					End Site
					{
						OFFSET	 0.000000	 0.000000	 0.207540
					}
				}
			}
		}
	}
	JOINT Spine
	{
		OFFSET	 0.000184	-0.007763	 0.117403
		CHANNELS 3 Zrotation Xrotation Yrotation
		JOINT Spine1
		{
			OFFSET	 0.000000	 0.000000	 0.137269
			CHANNELS 3 Zrotation Xrotation Yrotation
			JOINT Spine2
			{
				OFFSET	 0.000000	 0.000000	 0.156879
				CHANNELS 3 Zrotation Xrotation Yrotation
				JOINT LeftShoulder
				{
					OFFSET	 0.080501	-0.002496	 0.160144
					CHANNELS 3 Zrotation Xrotation Yrotation
					JOINT LeftArm
					{
						OFFSET	 0.000000	 0.000000	 0.164363
						CHANNELS 3 Zrotation Xrotation Yrotation
						JOINT LeftForeArm
						{
							OFFSET	 0.000000	 0.000000	 0.364576
							CHANNELS 3 Zrotation Xrotation Yrotation
							JOINT LeftHand
							{
								OFFSET	 0.000000	 0.000000	 0.360812
								CHANNELS 3 Zrotation Xrotation Yrotation
								JOINT LeftHandIndex1
								{
									OFFSET	 0.000000	 0.000000	 0.086006
									CHANNELS 3 Zrotation Xrotation Yrotation
									JOINT LeftHandIndex2
									{
										OFFSET	 0.000000	 0.000000	 0.047236
										CHANNELS 3 Zrotation Xrotation Yrotation
										JOINT LeftHandIndex3
										{
											OFFSET	-0.004284	-0.000551	 0.038166
											CHANNELS 3 Zrotation Xrotation Yrotation
											End Site
											{
												OFFSET	-0.004284	-0.000551	 0.038166
											}
										}
									}
								}
							}
						}
					}
				}
				JOINT Neck
				{
					OFFSET	 0.000000	 0.000000	 0.176489
					CHANNELS 3 Zrotation Xrotation Yrotation
					JOINT Head
					{
						OFFSET	 0.000000	-0.001747	 0.077940
						CHANNELS 3 Zrotation Xrotation Yrotation
						End Site
						{
							OFFSET	 0.000000	-0.001747	 0.077940
						}
					}
				}
				JOINT RightShoulder
				{
					OFFSET	-0.080363	 0.000306	 0.159706
					CHANNELS 3 Zrotation Xrotation Yrotation
					JOINT RightArm
					{
						OFFSET	 0.000000	 0.000000	 0.164196
						CHANNELS 3 Zrotation Xrotation Yrotation
						JOINT RightForeArm
						{
							OFFSET	 0.000000	 0.000000	 0.365611
							CHANNELS 3 Zrotation Xrotation Yrotation
							JOINT RightHand
							{
								OFFSET	 0.000000	 0.000000	 0.360648
								CHANNELS 3 Zrotation Xrotation Yrotation
								JOINT RightHandIndex1
								{
									OFFSET	 0.000000	 0.000000	 0.069977
									CHANNELS 3 Zrotation Xrotation Yrotation
									JOINT RightHandIndex2
									{
										OFFSET	 0.000000	 0.000000	 0.052305
										CHANNELS 3 Zrotation Xrotation Yrotation
										JOINT RightHandIndex3
										{
											OFFSET	 0.009002	-0.000782	 0.042196
											CHANNELS 3 Zrotation Xrotation Yrotation
											End Site
											{
												OFFSET	 0.009002	-0.000782	 0.042196
											}
										}
									}
								}
							}
						}
					}
				}
			}
		}
	}
}
MOTION
Frames:    4
Frame Time: 0.03333334
 6.297007	 7.439829	-0.898863	-79.072270	 0.696963	 3.695388	 5.039801	-4.082004	 176.495700	-11.169940	-33.871960	-5.139964	 171.978800	 86.452210	 179.425900	-2.376921	 30.284540	-0.040102	 1.766418	-12.711760	 178.984700	 3.681957	-47.728410	 5.754354	-175.573700	 81.951460	-178.475200	 2.403631	 22.164940	-0.129782	-0.900235	 0.516225	-1.877200	-0.402857	-2.351823	-0.206249	-0.078317	-4.453309	-0.008202	-91.809760	 77.598220	 179.142300	 36.660980	 69.860500	-39.645260	-8.036770	-4.013052	-20.130330	 5.744736	-3.216591	-5.341830	-3.812334	 37.924440	-2.927599	-2.450526	 36.184240	 0.754587	-1.378229	 35.397820	-2.634230	 0.484368	 6.010042	-3.221138	 0.247345	-13.322170	-1.587147	 89.764960	 79.275490	-179.641300	-36.336540	 70.394120	 39.071170	 4.276810	-7.778386	 30.509820	-11.148300	-4.188293	 9.608864	 6.437017	 35.671460	-0.771858	 2.830251	 35.756010	-7.813440	-2.350882	 35.473990	 5.254307
 6.310016	 7.439531	-0.899723	-78.833750	 0.807232	 3.735939	 4.999985	-4.382064	 176.551500	-10.943040	-34.288780	-5.090305	 171.950400	 86.082630	 179.634600	-2.375391	 30.568560	-0.046424	 1.868433	-12.987480	 178.969100	 3.990973	-48.363980	 6.129904	-176.123600	 81.460270	-177.737700	 2.403380	 22.302390	-0.127000	-1.015414	 0.556229	-1.924501	-0.415244	-2.376815	-0.269192	-0.125926	-4.486622	-0.013225	-91.807660	 77.629220	 179.169600	 36.591140	 69.732190	-39.659680	-8.193526	-4.017396	-20.706930	 5.528879	-3.324328	-5.349531	-3.812334	 37.924440	-2.927599	-2.450526	 36.184240	 0.754587	-1.378229	 35.397820	-2.634230	 0.460102	 5.627730	-3.523018	 0.234046	-13.005870	-1.282396	 89.764650	 79.242100	-179.622900	-36.288490	 70.496680	 39.140370	 4.302475	-7.689028	 30.009460	-11.174440	-4.304955	 9.612925	 6.437017	 35.671460	-0.771858	 2.830251	 35.756010	-7.813440	-2.350882	 35.473990	 5.254307
 6.310391	 7.434789	-0.900810	-78.945560	 0.840025	 3.594924	 5.178283	-4.683303	 176.800300	-10.794600	-34.760260	-4.941441	 172.407000	 85.690380	 179.516400	-2.374213	 30.781750	-0.051176	 2.178420	-14.077210	 179.161400	 4.469339	-50.429320	 6.987827	-176.273800	 81.134660	-177.320400	 2.400639	 23.627310	-0.100051	-1.272316	 0.937994	-1.696227	-0.594341	-2.439289	-0.306117	-0.401880	-4.574943	-0.042514	-91.799610	 77.793910	 179.248900	 36.664870	 69.463340	-40.108650	-8.373738	-3.969727	-21.147270	 5.234189	-3.544463	-5.361987	-3.812334	 37.924440	-2.927599	-2.450526	 36.184240	 0.754587	-1.378229	 35.397820	-2.634230	 0.137554	 5.590841	-3.177759	-0.079234	-13.159300	-1.863862	 89.768010	 79.069080	-179.632200	-36.471890	 70.588480	 39.712910	 4.370353	-7.612859	 29.571840	-11.198670	-4.529360	 9.623283	 6.437017	 35.671460	-0.771858	 2.830251	 35.756010	-7.813440	-2.350882	 35.473990	 5.254307
 6.310886	 7.428319	-0.902240	-79.343690	 0.882247	 3.011960	 5.856021	-4.783079	 177.435100	-11.048250	-35.004620	-4.651461	 174.784500	 85.414950	 177.655200	-2.372324	 31.116860	-0.058689	 2.318850	-16.828690	 179.961300	 5.631312	-55.056780	 8.672357	-175.842000	 81.625530	-177.573100	 2.386816	 27.887710	-0.010801	-1.544754	 1.614897	-0.993711	-0.713329	-2.532386	-0.190797	-0.549245	-4.810272	-0.059223	-91.789540	 78.070050	 179.319200	 36.849300	 69.056470	-41.074280	-8.585979	-3.868640	-21.323480	 4.899654	-3.889662	-5.378951	-3.812334	 37.924440	-2.927599	-2.450526	 36.184240	 0.754587	-1.378229	 35.397820	-2.634230	-0.011489	 5.385537	-3.207358	-0.201439	-13.441560	-2.067003	 89.774440	 78.780080	-179.695800	-36.875590	 70.644500	 40.635750	 4.556803	-7.485252	 29.286080	-11.057250	-4.862919	 9.642983	 6.437017	 35.671460	-0.771858	 2.830251	 35.756010	-7.813440	-2.350882	 35.473990	 5.254307
